<svg width="64" height="64" viewBox="0 0 64 64" fill="none" xmlns="http://www.w3.org/2000/svg">
<path d="M24.9333 24.9333C28.8333 21.0333 35.1666 21.0333 39.0667 24.9333C42.9666 28.8333 42.9666 35.1666 39.0667 39.0667C37.1916 40.9393 34.65 41.9912 32 41.9912C29.35 41.9912 26.8083 40.9393 24.9333 39.0667C23.0606 37.1916 22.0088 34.65 22.0088 32C22.0088 29.35 23.0606 26.8083 24.9333 24.9333ZM20.2 20.2C13.6666 26.7333 13.6666 37.2666 20.2 43.8C26.7333 50.3333 37.2666 50.3333 43.8 43.8C50.3333 37.2666 50.3333 26.7333 43.8 20.2C37.2666 13.6666 26.7333 13.6666 20.2 20.2ZM56.9 7.16665C56.9 7.16665 53.6666 7.56665 50.1 9.89998C49.6 6.39998 47.9333 2.89998 45.1 0.0666504C40.9333 4.23332 40.4333 9.39998 41.4333 13.1333C46.0667 14.3333 49.6666 17.9333 50.8666 22.5667C54.6 23.5667 59.8 23.0666 63.9333 18.9C61.3203 16.2599 57.9345 14.5204 54.2667 13.9333C55.5667 12 56.6 9.76665 56.9 7.16665ZM7.09998 56.8333C7.09998 56.8333 10.3333 56.4333 13.9 54.1333C14.4 57.6 16.0666 61.1 18.9 63.9333C23.0666 59.8 23.5667 54.6 22.5667 50.8666C20.2974 50.2754 18.2269 49.0895 16.5687 47.4313C14.9105 45.7731 13.7246 43.7026 13.1333 41.4333C9.39998 40.4333 4.23332 40.9333 0.0666504 45.1C2.86665 47.9 6.29998 49.5667 9.73332 50.0667C8.43332 52 7.39998 54.2667 7.09998 56.8333Z" fill="black"/>
</svg>
