<svg width="64" height="68" viewBox="0 0 64 68" fill="none" xmlns="http://www.w3.org/2000/svg">
<path d="M30 17.3334C29.0556 17.3334 28.2633 17.6534 27.6233 18.2934C26.9833 18.9334 26.6644 19.7245 26.6667 20.6667V37.3334C26.6667 38.2779 26.9867 39.0701 27.6267 39.7101C28.2667 40.3501 29.0578 40.669 30 40.6667C30.9444 40.6667 31.7367 40.3467 32.3767 39.7067C33.0167 39.0667 33.3356 38.2756 33.3333 37.3334V20.6667C33.3333 19.7223 33.0133 18.9301 32.3733 18.2901C31.7333 17.6501 30.9422 17.3312 30 17.3334ZM40 20.6667C39.0556 20.6667 38.2633 20.9867 37.6233 21.6267C36.9833 22.2667 36.6644 23.0579 36.6667 24.0001V32.3334C36.6667 33.2779 36.9867 34.0701 37.6267 34.7101C38.2667 35.3501 39.0578 35.669 40 35.6667C40.9444 35.6667 41.7367 35.3467 42.3767 34.7067C43.0167 34.0667 43.3356 33.2756 43.3333 32.3334V24.0001C43.3333 23.0556 43.0133 22.2634 42.3733 21.6234C41.7333 20.9834 40.9422 20.6645 40 20.6667ZM20 20.6667C19.0556 20.6667 18.2633 20.9867 17.6233 21.6267C16.9833 22.2667 16.6644 23.0579 16.6667 24.0001V30.6667C16.6667 31.6112 16.9867 32.4034 17.6267 33.0434C18.2667 33.6834 19.0578 34.0023 20 34.0001C20.9444 34.0001 21.7367 33.6801 22.3767 33.0401C23.0167 32.4001 23.3356 31.609 23.3333 30.6667V24.0001C23.3333 23.0556 23.0133 22.2634 22.3733 21.6234C21.7333 20.9834 20.9422 20.6645 20 20.6667ZM10 67.3334V53.0001C6.83333 50.1112 4.37556 46.7356 2.62667 42.8734C0.877778 39.0112 0.00222222 34.9423 0 30.6667C0 22.3334 2.91667 15.2501 8.75 9.41675C14.5833 3.58341 21.6667 0.666748 30 0.666748C36.9444 0.666748 43.0978 2.70897 48.46 6.79341C53.8222 10.8779 57.3078 16.1967 58.9167 22.7501L63.25 39.8334C63.5278 40.889 63.3333 41.8479 62.6667 42.7101C62 43.5723 61.1111 44.0023 60 44.0001H53.3333V54.0001C53.3333 55.8334 52.68 57.4034 51.3733 58.7101C50.0667 60.0167 48.4978 60.669 46.6667 60.6667H40V67.3334H33.3333V54.0001H46.6667V37.3334H55.6667L52.5 24.4167C51.2222 19.3612 48.5 15.2501 44.3333 12.0834C40.1667 8.91675 35.3889 7.33341 30 7.33341C23.5556 7.33341 18.0556 9.58342 13.5 14.0834C8.94445 18.5834 6.66667 24.0556 6.66667 30.5001C6.66667 33.8334 7.34778 37.0001 8.71 40.0001C10.0722 43.0001 12.0022 45.6667 14.5 48.0001L16.6667 50.0001V67.3334H10Z" fill="black"/>
</svg>
