<svg width="79" height="46" viewBox="0 0 79 46" fill="none" xmlns="http://www.w3.org/2000/svg">
<path d="M23 43V39.6667C23 35.2464 24.7559 31.0072 27.8816 27.8816C31.0072 24.7559 35.2464 23 39.6667 23M39.6667 23C44.0869 23 48.3262 24.7559 51.4518 27.8816C54.5774 31.0072 56.3333 35.2464 56.3333 39.6667V43M39.6667 23C42.3188 23 44.8624 21.9464 46.7377 20.0711C48.6131 18.1957 49.6667 15.6522 49.6667 13C49.6667 10.3478 48.6131 7.8043 46.7377 5.92893C44.8624 4.05357 42.3188 3 39.6667 3C37.0145 3 34.471 4.05357 32.5956 5.92893C30.7202 7.8043 29.6667 10.3478 29.6667 13C29.6667 15.6522 30.7202 18.1957 32.5956 20.0711C34.471 21.9464 37.0145 23 39.6667 23ZM3 43V39.6667C3 37.0145 4.05357 34.471 5.92893 32.5956C7.8043 30.7202 10.3478 29.6667 13 29.6667M13 29.6667C14.7681 29.6667 16.4638 28.9643 17.714 27.714C18.9643 26.4638 19.6667 24.7681 19.6667 23C19.6667 21.2319 18.9643 19.5362 17.714 18.286C16.4638 17.0357 14.7681 16.3333 13 16.3333C11.2319 16.3333 9.5362 17.0357 8.28595 18.286C7.03571 19.5362 6.33333 21.2319 6.33333 23C6.33333 24.7681 7.03571 26.4638 8.28595 27.714C9.5362 28.9643 11.2319 29.6667 13 29.6667ZM76.3333 43V39.6667C76.3333 37.0145 75.2798 34.471 73.4044 32.5956C71.529 30.7202 68.9855 29.6667 66.3333 29.6667M66.3333 29.6667C68.1014 29.6667 69.7971 28.9643 71.0474 27.714C72.2976 26.4638 73 24.7681 73 23C73 21.2319 72.2976 19.5362 71.0474 18.286C69.7971 17.0357 68.1014 16.3333 66.3333 16.3333C64.5652 16.3333 62.8695 17.0357 61.6193 18.286C60.369 19.5362 59.6667 21.2319 59.6667 23C59.6667 24.7681 60.369 26.4638 61.6193 27.714C62.8695 28.9643 64.5652 29.6667 66.3333 29.6667Z" stroke="black" stroke-width="5" stroke-linecap="round" stroke-linejoin="round"/>
</svg>
