<svg width="72" height="66" viewBox="0 0 72 66" fill="none" xmlns="http://www.w3.org/2000/svg">
<path fill-rule="evenodd" clip-rule="evenodd" d="M14.7866 6.85003C9.27329 9.48337 5.16663 15.7967 5.16663 23.3967C5.16663 37.4867 15.1633 45.57 24.6233 53.2234C25.58 53.9934 26.53 54.7634 27.4633 55.5334C29.2166 56.9767 30.78 58.2467 32.2866 59.1667C33.7966 60.09 34.9966 60.5 36 60.5C37.08 60.5 38.2966 60.0367 39.7566 59.1367C35.2166 55.6467 30.1666 50.8034 30.1666 43.1967C30.1666 37.9534 33.29 33.44 37.7433 31.5034C41.7766 29.75 46.6366 30.2034 51 33.5467C53.7133 31.4667 56.64 30.4867 59.49 30.5C61.5712 30.5103 63.6147 31.0567 65.4233 32.0867C66.3728 29.2885 66.8494 26.3516 66.8333 23.3967C66.8333 15.7967 62.7266 9.48337 57.2133 6.85003C51.8933 4.3067 44.7133 4.95003 37.84 12.4167C37.6058 12.6713 37.3214 12.8745 37.0047 13.0135C36.688 13.1525 36.3458 13.2242 36 13.2242C35.6541 13.2242 35.312 13.1525 34.9953 13.0135C34.6785 12.8745 34.3941 12.6713 34.16 12.4167C27.2866 4.95003 20.1066 4.3067 14.7866 6.85003ZM69.4066 35.6634C70.989 37.8561 71.8383 40.4926 71.8333 43.1967C71.8333 48.2567 69.6 52.0867 66.8 55.0834C64.58 57.46 61.8533 59.4534 59.54 61.1467C59.0266 61.5234 58.5333 61.8834 58.07 62.23C57.14 62.93 56.07 63.7267 54.97 64.3367C53.87 64.9467 52.52 65.5 51 65.5C49.48 65.5 48.13 64.9467 47.0266 64.3334C45.9816 63.7229 44.9782 63.0436 44.0233 62.3C41.67 63.99 38.9466 65.5 36 65.5C33.67 65.5 31.5333 64.5667 29.68 63.4334C27.8233 62.3 25.99 60.8 24.28 59.39C23.3395 58.6171 22.3939 57.8504 21.4433 57.09C12.17 49.6534 0.166626 40.0267 0.166626 23.4C0.166626 14.05 5.22663 5.88003 12.6333 2.34003C19.66 -1.01997 28.3066 0.00670084 36 7.18003C43.69 0.0100339 52.34 -1.01997 59.3666 2.34003C66.7733 5.88003 71.8333 14.05 71.8333 23.4C71.8333 27.9667 70.93 32.0267 69.4066 35.6667V35.6634ZM39.7366 36.09C38.3669 36.7026 37.2052 37.701 36.3936 38.963C35.5821 40.2251 35.1557 41.6962 35.1666 43.1967C35.1666 49.4734 40.0666 53.1934 45.4833 57.1634C45.97 57.5167 46.4533 57.8734 46.93 58.23C47.9033 58.96 48.7033 59.5467 49.4566 59.9634C50.2066 60.38 50.6866 60.4967 51 60.4967C51.3133 60.4967 51.7933 60.38 52.5433 59.9634C53.2966 59.5467 54.0966 58.96 55.07 58.23C55.6266 57.8134 56.1833 57.4034 56.74 56.9967C59.0333 55.3167 61.28 53.6667 63.1466 51.67C65.38 49.28 66.8333 46.6134 66.8333 43.1967C66.8333 41.0767 66.0066 39.17 64.6833 37.7834C64.0128 37.0705 63.2049 36.5008 62.3084 36.1084C61.4119 35.7159 60.4452 35.509 59.4666 35.5C57.4833 35.49 55.12 36.3067 52.7566 38.64C52.2887 39.1021 51.6576 39.3612 51 39.3612C50.3423 39.3612 49.7112 39.1021 49.2433 38.64C45.77 35.2067 42.2566 34.9934 39.7366 36.09Z" fill="black"/>
</svg>
