<svg width="54" height="68" viewBox="0 0 54 68" fill="none" xmlns="http://www.w3.org/2000/svg">
<path d="M53.6667 48.1535C53.6667 47.1687 53.4727 46.1936 53.0957 45.2839C52.7188 44.3741 52.1663 43.5475 51.4698 42.8514C50.7733 42.1552 49.9465 41.603 49.0366 41.2265C48.1267 40.85 47.1515 40.6564 46.1667 40.6568H7.83337C6.84834 40.6564 5.87287 40.8501 4.96273 41.2268C4.05259 41.6036 3.22562 42.156 2.5291 42.8525C1.83257 43.5491 1.28014 44.376 0.903386 45.2862C0.526631 46.1963 0.332937 47.1718 0.333375 48.1568V50.0801C0.333375 53.0568 1.39671 55.9335 3.32671 58.1968C8.55004 64.3101 16.5034 67.3301 26.9867 67.3301C37.4734 67.3301 45.43 64.3135 50.66 58.2001C52.5999 55.9355 53.6663 53.052 53.6667 50.0701V48.1535ZM7.83004 45.6568H46.1667C47.5434 45.6568 48.66 46.7735 48.66 48.1568V50.0735C48.6606 51.8616 48.0222 53.5911 46.86 54.9501C42.67 59.8435 36.1134 62.3268 26.9834 62.3268C17.8567 62.3268 11.3034 59.8435 7.12671 54.9501C5.96724 53.5924 5.33017 51.8656 5.33004 50.0801V48.1535C5.33092 47.4916 5.59425 46.8571 6.06227 46.389C6.5303 45.921 7.16816 45.6577 7.83004 45.6568ZM43.6567 17.3401C43.6571 13.83 42.5493 10.4093 40.4912 7.56584C38.4331 4.72238 35.5298 2.6013 32.1952 1.50505C28.8606 0.408794 25.2651 0.393338 21.9212 1.46088C18.5773 2.52843 15.6559 4.62447 13.5734 7.45014C13.3318 7.37364 13.0801 7.3343 12.8267 7.33347H4.50004C3.837 7.33347 3.20112 7.59687 2.73227 8.06571C2.26343 8.53455 2.00004 9.17043 2.00004 9.83347V28.1601C1.99917 29.3645 2.23562 30.5572 2.6959 31.6701C3.15617 32.783 3.83125 33.7943 4.68254 34.6463C5.53383 35.4982 6.54465 36.174 7.65724 36.6351C8.76982 37.0962 9.96236 37.3335 11.1667 37.3335H12V37.3201H12.0334C12.5981 37.321 13.1538 37.1781 13.648 36.9049C14.1423 36.6316 14.5588 36.2371 14.8585 35.7583C15.1581 35.2796 15.3309 34.7325 15.3606 34.1685C15.3903 33.6046 15.276 33.0423 15.0283 32.5348C14.7807 32.0272 14.4079 31.591 13.9451 31.2674C13.4823 30.9437 12.9448 30.7432 12.383 30.6847C11.8213 30.6262 11.254 30.7117 10.7344 30.9331C10.2149 31.1545 9.76026 31.5045 9.41337 31.9501C8.69152 31.6153 8.08065 31.0808 7.65298 30.4097C7.22531 29.7387 6.99873 28.9592 7.00004 28.1635V27.3335H9.49337C10.76 27.3335 11.9367 26.9268 12.8934 26.2401C14.8213 29.2967 17.6905 31.6438 21.0686 32.9277C24.4466 34.2117 28.1504 34.3629 31.6219 33.3586C35.0933 32.3543 38.1443 30.2489 40.315 27.3597C42.4857 24.4704 43.6585 20.9539 43.6567 17.3401ZM10.3234 16.9868C10.3185 17.2223 10.3185 17.4579 10.3234 17.6935V21.4968C10.3234 21.7178 10.2356 21.9298 10.0793 22.0861C9.92302 22.2423 9.71106 22.3301 9.49004 22.3301H7.00004V12.3368H10.3267L10.3234 16.9868ZM15.3234 17.6368V17.0435C15.4014 13.976 16.6848 11.0627 18.8955 8.93472C21.1063 6.80674 24.0664 5.6354 27.1346 5.67442C30.2029 5.71343 33.1322 6.95967 35.2881 9.14318C37.444 11.3267 38.6529 14.2716 38.6529 17.3401C38.6529 20.4086 37.444 23.3536 35.2881 25.5371C33.1322 27.7206 30.2029 28.9668 27.1346 29.0059C24.0664 29.0449 21.1063 27.8735 18.8955 25.7456C16.6848 23.6176 15.4014 20.7043 15.3234 17.6368Z" fill="black"/>
</svg>
