<svg width="18" height="19" viewBox="0 0 18 19" fill="none" xmlns="http://www.w3.org/2000/svg">
<path d="M13.5881 19C12.6403 19 11.6421 18.7614 10.6104 18.3019C9.60391 17.8512 8.589 17.2326 7.59926 16.4814C6.61789 15.7214 5.67008 14.873 4.7726 13.9451C3.8835 12.9995 3.07829 12.0009 2.36533 10.9758C1.64399 9.91535 1.06524 8.85488 0.65424 7.82977C0.21808 6.73395 0 5.67349 0 4.67488C0 3.98558 0.117428 3.33163 0.343896 2.72186C0.578751 2.09442 0.956198 1.51116 1.46785 1.00744C2.1137 0.335814 2.85182 0 3.64026 0C3.96738 0 4.30289 0.0795349 4.58807 0.22093C4.91519 0.38 5.19199 0.618605 5.39329 0.936744L7.33924 3.82651C7.51538 4.08279 7.64958 4.33023 7.74185 4.57767C7.85089 4.84279 7.9096 5.10791 7.9096 5.36419C7.9096 5.7 7.81733 6.02698 7.64119 6.33628C7.51538 6.57488 7.32246 6.83116 7.07922 7.08744L6.50885 7.71488C6.51724 7.74139 6.52563 7.75907 6.53402 7.77674C6.63467 7.96233 6.83597 8.28047 7.22181 8.75767C7.63281 9.25256 8.01864 9.70326 8.40447 10.1186C8.89935 10.6312 9.31035 11.0377 9.69618 11.3735C10.1743 11.7977 10.4846 12.0098 10.6692 12.107L10.6524 12.1512L11.2647 11.5149C11.5247 11.2409 11.7763 11.0377 12.0196 10.9051C12.4809 10.6047 13.068 10.5516 13.6552 10.8079C13.8733 10.9051 14.1081 11.0377 14.3597 11.2233L17.1445 13.3088C17.4548 13.5298 17.6813 13.8126 17.8155 14.1484C17.9413 14.4842 18 14.7935 18 15.1028C18 15.527 17.9077 15.9512 17.7316 16.3488C17.5555 16.7465 17.3374 17.0912 17.0606 17.4093C16.5825 17.966 16.0624 18.3637 15.4585 18.62C14.8798 18.8674 14.2507 19 13.5881 19ZM3.64026 1.32558C3.17894 1.32558 2.75117 1.53767 2.34017 1.96186C1.95433 2.34186 1.68593 2.75721 1.51817 3.20791C1.34203 3.66744 1.25815 4.15349 1.25815 4.67488C1.25815 5.49674 1.44268 6.3893 1.81174 7.30837C2.18919 8.24512 2.71761 9.21721 3.38863 10.1893C4.05965 11.1614 4.82293 12.107 5.6617 12.9995C6.50047 13.8744 7.40634 14.6874 8.33737 15.4033C9.24324 16.1014 10.1743 16.667 11.0969 17.0735C12.5312 17.7186 13.8733 17.8688 14.9804 17.3828C15.4082 17.1972 15.7856 16.9144 16.1295 16.5079C16.3225 16.287 16.4734 16.0484 16.5993 15.7656C16.6999 15.5447 16.7502 15.3149 16.7502 15.0851C16.7502 14.9437 16.7251 14.8023 16.658 14.6433C16.6328 14.5902 16.5825 14.493 16.4231 14.3781L13.6384 12.2926C13.4706 12.1688 13.3197 12.0805 13.1771 12.0186C12.9925 11.9391 12.9171 11.8595 12.6319 12.0451C12.4641 12.1335 12.3131 12.266 12.1454 12.4428L11.5079 13.1056C11.1808 13.4414 10.6775 13.5209 10.2917 13.3707L10.0652 13.2647C9.72134 13.0702 9.31873 12.7698 8.87418 12.3721C8.47158 12.0098 8.03541 11.5856 7.50699 11.0377C7.09599 10.5958 6.685 10.1274 6.25722 9.60605C5.863 9.12 5.57782 8.70465 5.40168 8.36L5.30103 8.09488C5.2507 7.89163 5.23392 7.77674 5.23392 7.65302C5.23392 7.33488 5.34296 7.05209 5.55266 6.83116L6.18173 6.14186C6.34949 5.96512 6.4753 5.79721 6.55918 5.64698C6.62628 5.53209 6.65145 5.43488 6.65145 5.34651C6.65145 5.27581 6.62628 5.16977 6.58434 5.06372C6.52563 4.92233 6.43336 4.76326 6.31594 4.59535L4.36999 1.69674C4.28611 1.57302 4.18546 1.48465 4.05965 1.42279C3.92544 1.36093 3.78285 1.32558 3.64026 1.32558ZM10.6524 12.16L10.5182 12.7609L10.7446 12.1423C10.7027 12.1335 10.6692 12.1423 10.6524 12.16Z" fill="#292D32"/>
</svg>
